<svg xmlns="http://www.w3.org/2000/svg" xmlns:xlink="http://www.w3.org/1999/xlink"><symbol viewBox="0 0 7 10" id="symbol-arrow" xmlns="http://www.w3.org/2000/svg"><path fill-rule="evenodd" clip-rule="evenodd" d="M.705 1.45L1.765.39l4.531 4.53-4.53 4.53-1.06-1.06 3.469-3.47-3.47-3.47z"/></symbol><symbol viewBox="0 0 15 32" id="symbol-caret" xmlns="http://www.w3.org/2000/svg"><path d="M1 1l13.18 15L1 31"/></symbol><symbol viewBox="0 0 28 20" id="symbol-email" xmlns="http://www.w3.org/2000/svg"><path d="M0 1V.5h-.5V1H0zm0 1.774h-.5v.28l.24.147.26-.427zM2.7 4.42l-.26.427.26-.427zM13.5 11l-.26.427.26.158.259-.157L13.5 11zm7.256-4.39l.259.428-.259-.428zM24.3 4.466l.259.428-.259-.428zM27 2.83l.259.428.241-.146V2.83H27zM27 1h.5V.5H27V1zM0 3l.256-.43-.756-.45V3H0zm0 16h-.5v.5H0V19zm27 0v.5h.5V19H27zm0-15.952h.5v-.877l-.755.447.255.43zm-13.497 7.994l-.256.43.255.152.255-.152-.254-.43zM-.5 1v1.774h1V1h-1zm.24 2.2l2.7 1.647.52-.854-2.7-1.646-.52.854zm2.7 1.647l10.8 6.58.52-.854-10.8-6.58-.52.854zm11.319 6.58l7.256-4.39-.518-.855-7.256 4.39.518.856zm7.256-4.39l3.544-2.143-.518-.856-3.544 2.144.518.856zm3.544-2.144l2.7-1.635-.518-.855-2.7 1.635.518.855zM27.5 2.83V1h-1v1.83h1zM27 .5H0v1h27v-1zM-.5 3v16h1V3h-1zM0 19.5h27v-1H0v1zm27.5-.5V3.048h-1V19h1zm-.755-16.382l-13.497 7.994.51.86L27.254 3.48l-.51-.86zm-12.987 7.994L.256 2.57l-.512.86 13.503 8.042.511-.86z"/></symbol><symbol viewBox="0 0 28 28" id="symbol-facebook" xmlns="http://www.w3.org/2000/svg"><path fill-rule="evenodd" clip-rule="evenodd" d="M0 14.022C0 6.286 6.276 0 14 0s14 6.286 14 14.022c0 7.092-5.273 12.952-12.105 13.88l-.722.098V16.932h3.55l.347-2.244h-3.897v-2.56c0-.8.117-1.586.494-2.244a2.284 2.284 0 011.985-1.151h1.557V6.897l-.114-.015c-.413-.052-.896-.112-1.99-.112-1.496 0-2.571.382-3.299 1.14-.727.758-1.167 1.966-1.167 3.8v2.98H9.332v2.243h3.307v11.05l-.73-.111C5.171 26.858 0 21.046 0 14.022zm26.727 0c0-7.047-5.69-12.747-12.727-12.747S1.273 6.975 1.273 14.022c0 6.135 4.338 11.19 10.093 12.41v-8.224H8.06v-4.793h3.307V11.71c0-2.042.504-3.623 1.523-4.685 1.02-1.062 2.496-1.531 4.216-1.531 1.55 0 2.418.118 2.808.17l.017.003.552.075v4.265h-2.83c-.482 0-.678.154-.882.51-.203.356-.324.948-.324 1.61v1.286h4.108l-.74 4.792h-3.368v8.267c5.85-1.149 10.281-6.249 10.281-12.45z"/></symbol><symbol viewBox="0 0 26 26" id="symbol-instagram" xmlns="http://www.w3.org/2000/svg"><path fill-rule="evenodd" clip-rule="evenodd" d="M7.682 0C3.446 0 0 3.446 0 7.682v10.636C0 22.553 3.446 26 7.682 26h10.636C22.553 26 26 22.553 26 18.318V7.682C26 3.446 22.553 0 18.318 0H7.682zM7.6 1h10.8C22.052 1 25 3.948 25 7.6v10.8c0 3.652-2.948 6.6-6.6 6.6H7.6A6.591 6.591 0 011 18.4V7.6C1 3.948 3.948 1 7.6 1zM19 6a1 1 0 112 0 1 1 0 01-2 0zm-6.5 0A6.509 6.509 0 006 12.5c0 3.583 2.917 6.5 6.5 6.5s6.5-2.917 6.5-6.5S16.083 6 12.5 6zm5.5 6.5A5.49 5.49 0 0012.5 7 5.49 5.49 0 007 12.5a5.49 5.49 0 005.5 5.5 5.49 5.49 0 005.5-5.5z"/></symbol><symbol viewBox="0 0 134 94" id="symbol-quote" xmlns="http://www.w3.org/2000/svg"><path d="M32.632.981c3.003 0 5.148.858 8.58 3.003l2.574 2.145c3.003 2.145 4.72 3.432 4.72 6.435 0 6.006-14.587 13.728-14.587 30.03 0 3.861 1.287 6.435 6.435 9.438 8.151 4.29 12.441 10.296 12.441 19.734 0 14.586-11.154 21.879-23.595 21.879-18.018 0-28.314-12.441-28.314-34.32C.886 29.724 24.052.981 32.632.981zm80.652 0c3.003 0 5.148.858 8.58 3.003l2.574 2.145c3.003 2.145 4.719 3.432 4.719 6.435 0 6.006-14.586 13.728-14.586 30.03 0 3.861 1.287 6.435 6.435 9.438 8.151 4.29 12.441 10.296 12.441 19.734 0 14.586-11.154 21.879-23.595 21.879-18.018 0-28.314-12.441-28.314-34.32 0-29.601 23.166-58.344 31.746-58.344z"/></symbol><symbol viewBox="0 0 32 24" id="symbol-youtube" xmlns="http://www.w3.org/2000/svg"><path fill-rule="evenodd" clip-rule="evenodd" d="M6.363 0h19.274C29.145 0 32 2.923 32 6.516v10.968C32 21.077 29.145 24 25.637 24H6.363C2.855 24 0 21.077 0 17.484V6.516C0 2.923 2.855 0 6.363 0zm19.274 22.667c2.788 0 5.057-2.324 5.057-5.183V6.517c0-2.857-2.269-5.183-5.057-5.183H6.363c-2.788 0-5.057 2.326-5.057 5.183v10.969c0 2.857 2.269 5.182 5.057 5.182h19.274z"/><path fill-rule="evenodd" clip-rule="evenodd" d="M12.044 6.09l9.613 5.342a.653.653 0 01.343.569c0 .234-.131.45-.343.568l-9.613 5.34a.724.724 0 01-.696.004.654.654 0 01-.348-.571V6.658c0-.236.133-.454.349-.571a.728.728 0 01.695.003zm.344 1.716v8.387L19.933 12l-7.545-4.194z"/></symbol></svg>