<?xml version="1.0" encoding="UTF-8"?>
<svg id="Layer_2" data-name="Layer 2" xmlns="http://www.w3.org/2000/svg" viewBox="0 0 597.11 974.43">
  <defs>
    <style>
      .cls-1 {
        fill: #a68a5d;
        stroke-width: 0px;
      }
    </style>
  </defs>
  <g id="Layer_1-2" data-name="Layer 1">
    <g>
      <g>
        <polyline class="cls-1" points=".46 108.86 149.68 258.07 .46 407.29"/>
        <rect class="cls-1" x="193.26" y="152.56" width="211.02" height="211.02" transform="translate(269.99 -135.67) rotate(45)"/>
        <polyline class="cls-1" points="597.11 407.29 447.9 258.07 597.11 108.86"/>
        <rect class="cls-1" x=".46" y="407.29" width="596.65" height="100.67"/>
        <circle class="cls-1" cx="298.79" cy="43.28" r="43.28"/>
      </g>
      <g>
        <path class="cls-1" d="M29.02,594.85H0v-8.19h67.74v8.19h-29.02v75.11h-9.71v-75.11Z"/>
        <path class="cls-1" d="M93.72,665.75c-5.69-3.43-10.08-8.37-13.16-14.8-3.08-6.43-4.62-13.98-4.62-22.64s1.52-16.3,4.56-22.7c3.04-6.39,7.41-11.31,13.1-14.74,5.69-3.43,12.44-5.15,20.24-5.15s14.55,1.72,20.24,5.15c5.69,3.43,10.06,8.35,13.1,14.74,3.04,6.4,4.56,13.92,4.56,22.58s-1.54,16.3-4.62,22.7c-3.08,6.4-7.47,11.33-13.16,14.8-5.69,3.47-12.4,5.21-20.12,5.21s-14.43-1.71-20.12-5.15ZM134.43,653.7c4.91-6.01,7.37-14.51,7.37-25.51s-2.44-19.46-7.31-25.39c-4.88-5.93-11.76-8.89-20.65-8.89s-15.79,2.98-20.71,8.95c-4.91,5.97-7.37,14.41-7.37,25.33s2.46,19.5,7.37,25.51c4.91,6.01,11.82,9.01,20.71,9.01s15.68-3,20.59-9.01Z"/>
        <path class="cls-1" d="M239.38,669.96h-10.18l-10.3-27.73c-1.25-3.43-2.98-5.73-5.21-6.9s-5.36-1.76-9.42-1.76h-20.83v36.39h-9.48v-83.3h33.11c8.97,0,15.85,1.99,20.65,5.97s7.2,9.71,7.2,17.2c0,5.46-1.42,10.04-4.27,13.75-2.85,3.71-6.96,6.34-12.34,7.9,2.42.39,4.48,1.42,6.2,3.1,1.71,1.68,3.16,4.08,4.33,7.2l10.53,28.2ZM206.27,625.62c12.79,0,19.19-5.23,19.19-15.68,0-5.15-1.56-8.99-4.68-11.52-3.12-2.53-7.96-3.8-14.51-3.8h-22.81v31.01h22.81Z"/>
        <path class="cls-1" d="M273.9,665.75c-5.69-3.43-10.08-8.37-13.16-14.8-3.08-6.43-4.62-13.98-4.62-22.64s1.52-16.3,4.56-22.7c3.04-6.39,7.41-11.31,13.1-14.74,5.69-3.43,12.44-5.15,20.24-5.15s14.55,1.72,20.24,5.15c5.69,3.43,10.06,8.35,13.1,14.74,3.04,6.4,4.56,13.92,4.56,22.58s-1.54,16.3-4.62,22.7c-3.08,6.4-7.47,11.33-13.16,14.8-5.69,3.47-12.4,5.21-20.12,5.21s-14.43-1.71-20.12-5.15ZM314.61,653.7c4.91-6.01,7.37-14.51,7.37-25.51s-2.44-19.46-7.31-25.39c-4.88-5.93-11.76-8.89-20.65-8.89s-15.79,2.98-20.71,8.95c-4.91,5.97-7.37,14.41-7.37,25.33s2.46,19.5,7.37,25.51c4.91,6.01,11.82,9.01,20.71,9.01s15.68-3,20.59-9.01Z"/>
        <path class="cls-1" d="M420.96,586.66v83.3h-7.49l-50.31-67.04v67.04h-9.01v-83.3h7.37l50.31,67.04v-67.04h9.13Z"/>
        <path class="cls-1" d="M466.24,594.85h-29.02v-8.19h67.74v8.19h-29.02v75.11h-9.71v-75.11Z"/>
        <path class="cls-1" d="M530.94,665.75c-5.69-3.43-10.08-8.37-13.16-14.8-3.08-6.43-4.62-13.98-4.62-22.64s1.52-16.3,4.56-22.7c3.04-6.39,7.41-11.31,13.1-14.74,5.69-3.43,12.44-5.15,20.24-5.15s14.55,1.72,20.24,5.15c5.69,3.43,10.06,8.35,13.1,14.74,3.04,6.4,4.56,13.92,4.56,22.58s-1.54,16.3-4.62,22.7c-3.08,6.4-7.47,11.33-13.16,14.8-5.69,3.47-12.4,5.21-20.12,5.21s-14.43-1.71-20.12-5.15ZM571.66,653.7c4.91-6.01,7.37-14.51,7.37-25.51s-2.44-19.46-7.31-25.39c-4.88-5.93-11.76-8.89-20.65-8.89s-15.79,2.98-20.71,8.95c-4.91,5.97-7.37,14.41-7.37,25.33s2.46,19.5,7.37,25.51c4.91,6.01,11.82,9.01,20.71,9.01s15.68-3,20.59-9.01Z"/>
        <path class="cls-1" d="M59.17,765.99c.39-14.8,5.78-27.66,16.15-38.59,10.38-10.92,22.56-16.99,36.56-18.21,14-1.21,26.36,3.47,37.09,14.04,6.66,9.2,7.82,17.43,3.5,24.67-4.33,7.24-11.05,10.28-20.18,9.1-7.25-1.84-11.62-5.6-13.13-11.28-1.51-5.68-.76-10.79,2.23-15.33,3-4.54,7.29-7.03,12.89-7.46-4.35-4.5-9.96-5.79-16.83-3.85-6.87,1.94-13,6.92-18.38,14.95-5.38,8.03-8,18.85-7.84,32.48.08,14.1,3.7,24.28,10.87,30.54,7.17,6.27,15.91,8.59,26.22,6.96,10.32-1.62,19.41-6.94,27.28-15.95-1.33,7.95-5.84,15.43-13.54,22.44-7.69,7.01-17.04,10.87-28.05,11.57-15.12-.08-27.79-5.01-38.03-14.8-10.24-9.79-15.85-23.55-16.83-41.29Z"/>
        <path class="cls-1" d="M207.97,716l-.18,30.66c5.29-7.05,12.03-11.07,20.23-12.07,8.2-1,15.62.43,22.26,4.29,6.64,3.86,10.27,9.54,10.9,17.06v56.97c-.2,2.82.53,5.02,2.17,6.61s2.39,2.4,2.23,2.44h-41.17c-.31-.08.28-.97,1.79-2.67,1.51-1.7,2.38-3.83,2.61-6.37v-52.45c-.16-8.42-1.56-13.48-4.2-15.18-2.64-1.7-5.6-1.33-8.87,1.12-3.27,2.45-5.92,5.73-7.96,9.84v56.68c.24,2.55,1.11,4.67,2.61,6.37,1.51,1.7,2.1,2.59,1.79,2.67h-41.29c-.31-.08.28-.97,1.79-2.67,1.51-1.7,2.38-3.83,2.61-6.37l.12-77.18c.08-1.41.04-2.63-.12-3.67-.16-1.04-.46-2.08-.91-3.11-.45-1.04-1.15-1.92-2.08-2.64-.94-.72-2.19-1.12-3.76-1.2v-1.88c4.31,0,8.76-1.04,13.36-3.11,4.6-2.08,8.85-4.44,12.75-7.11,3.9-2.66,7.17-4.01,9.84-4.05,2.66-.04,3.82,2.31,3.47,7.05Z"/>
        <path class="cls-1" d="M277.06,778.5c-.16-7.28,1.69-14.52,5.55-21.7,3.86-7.18,9.37-12.97,16.53-17.36,7.17-4.38,15.64-5.97,25.43-4.76,8.3,1.25,14.8,4.63,19.5,10.13,4.7,5.5,7,11.7,6.9,18.59-.1,6.89-3.22,13-9.37,18.33-6.15,5.33-15.92,8.42-29.31,9.28,2.78,5.87,7.23,9.84,13.36,11.89s12.26,2.4,18.38,1.03c6.13-1.37,10.6-4.25,13.42-8.63-2.35,6.85-6.84,12.96-13.48,18.33-6.64,5.37-14.28,8.22-22.94,8.58-12.1-.04-22.26-3.88-30.48-11.51-8.22-7.64-12.73-18.36-13.51-32.19ZM323.64,739.14c-3.37-.12-6.22,3.18-8.55,9.9-2.33,6.72-3.85,13.96-4.55,21.73-.71,7.77-.31,13.19,1.17,16.24,6.66-.12,11.56-2.36,14.71-6.73,3.15-4.37,4.93-9.52,5.34-15.48.41-5.95-.17-11.39-1.73-16.33-1.57-4.93-3.7-8.05-6.4-9.34Z"/>
        <path class="cls-1" d="M409.88,800.58c-.16-2.82-1.67-5.32-4.55-7.52-2.88-2.19-6.37-4.37-10.48-6.52-5.72-2.82-10.98-6.28-15.8-10.4-4.82-4.11-7.36-9.63-7.64-16.56.55-7.64,4.63-13.83,12.25-18.59,7.62-4.76,16.4-7.04,26.34-6.84,9.95.2,18.64,3.9,26.08,11.1,3.8,4.54,5.58,9,5.34,13.36-.24,4.37-1.91,7.87-5.02,10.51-3.11,2.64-7.06,3.63-11.83,2.97-6.46-1.37-10.46-4.31-11.98-8.81-1.53-4.5-1.18-8.73,1.03-12.69,2.21-3.95,5.71-5.81,10.48-5.58-2.15-2.15-4.9-2.86-8.25-2.11-3.35.74-6.31,2.61-8.9,5.61-2.58,3-3.82,6.78-3.7,11.37.35,3.41,2.15,6.25,5.4,8.55,3.25,2.29,7.11,4.45,11.57,6.49,5.64,2.47,10.75,5.48,15.33,9.05,4.58,3.56,7.05,8.52,7.4,14.86-.08,5.76-1.8,10.44-5.17,14.04-3.37,3.6-7.58,6.28-12.63,8.05-5.05,1.76-10.14,2.8-15.27,3.11-6.89.43-13.91-.58-21.06-3.02-7.15-2.45-12.56-6.33-16.24-11.66-2.35-3.84-3.34-7.87-2.97-12.1.37-4.23,2.17-7.73,5.4-10.51,3.23-2.78,6.67-3.68,10.31-2.7,5.52,1.41,8.91,4.29,10.16,8.63,1.25,4.35.79,8.41-1.38,12.19-2.17,3.78-5.63,5.51-10.37,5.2,3.76,3.13,7.59,4.39,11.48,3.76,3.9-.63,7.22-2.25,9.99-4.88,2.76-2.62,4.32-5.4,4.67-8.34Z"/>
        <path class="cls-1" d="M497.59,800.58c-.16-2.82-1.67-5.32-4.55-7.52-2.88-2.19-6.37-4.37-10.48-6.52-5.72-2.82-10.98-6.28-15.8-10.4-4.82-4.11-7.36-9.63-7.64-16.56.55-7.64,4.63-13.83,12.25-18.59,7.62-4.76,16.4-7.04,26.34-6.84,9.95.2,18.64,3.9,26.08,11.1,3.8,4.54,5.58,9,5.34,13.36-.24,4.37-1.91,7.87-5.02,10.51-3.11,2.64-7.06,3.63-11.83,2.97-6.46-1.37-10.46-4.31-11.98-8.81-1.53-4.5-1.18-8.73,1.03-12.69,2.21-3.95,5.71-5.81,10.48-5.58-2.15-2.15-4.9-2.86-8.25-2.11-3.35.74-6.31,2.61-8.9,5.61-2.58,3-3.82,6.78-3.7,11.37.35,3.41,2.15,6.25,5.4,8.55,3.25,2.29,7.11,4.45,11.57,6.49,5.64,2.47,10.75,5.48,15.33,9.05,4.58,3.56,7.05,8.52,7.4,14.86-.08,5.76-1.8,10.44-5.17,14.04-3.37,3.6-7.58,6.28-12.63,8.05-5.05,1.76-10.14,2.8-15.27,3.11-6.89.43-13.91-.58-21.06-3.02-7.15-2.45-12.56-6.33-16.24-11.66-2.35-3.84-3.34-7.87-2.97-12.1.37-4.23,2.17-7.73,5.4-10.51,3.23-2.78,6.67-3.68,10.31-2.7,5.52,1.41,8.91,4.29,10.16,8.63,1.25,4.35.79,8.41-1.38,12.19-2.17,3.78-5.63,5.51-10.37,5.2,3.76,3.13,7.59,4.39,11.48,3.76,3.9-.63,7.22-2.25,9.99-4.88,2.76-2.62,4.32-5.4,4.67-8.34Z"/>
        <path class="cls-1" d="M112.07,917.99c.39-14.8,5.78-27.66,16.15-38.59,10.38-10.92,22.56-16.99,36.56-18.21,14-1.21,26.36,3.47,37.09,14.04,6.66,9.2,7.82,17.43,3.5,24.67-4.33,7.24-11.05,10.28-20.18,9.1-7.25-1.84-11.62-5.6-13.13-11.28-1.51-5.68-.76-10.79,2.23-15.33,3-4.54,7.29-7.03,12.89-7.46-4.35-4.5-9.96-5.79-16.83-3.85-6.87,1.94-13,6.92-18.38,14.95-5.38,8.03-8,18.85-7.84,32.48.08,14.1,3.7,24.28,10.87,30.54,7.17,6.27,15.91,8.59,26.22,6.96,10.32-1.62,19.41-6.94,27.28-15.95-1.33,7.95-5.84,15.43-13.54,22.44-7.69,7.01-17.04,10.87-28.05,11.57-15.12-.08-27.79-5.01-38.03-14.8-10.24-9.79-15.85-23.55-16.83-41.29Z"/>
        <path class="cls-1" d="M260.22,868.24l.18,96.74c.24,2.55,1.11,4.67,2.61,6.37,1.51,1.7,2.1,2.59,1.79,2.67h-41.17c-.16-.04.6-.85,2.26-2.44,1.66-1.59,2.38-3.79,2.14-6.61v-77.18c.08-1.41.04-2.63-.12-3.67-.16-1.04-.46-2.08-.91-3.11-.45-1.04-1.15-1.92-2.08-2.64-.94-.72-2.19-1.13-3.76-1.2v-1.88c4.31,0,8.76-1.04,13.36-3.11,4.6-2.07,8.85-4.44,12.75-7.11,3.9-2.66,7.06-3.64,9.49-2.94,2.43.7,3.58,2.74,3.46,6.11Z"/>
        <path class="cls-1" d="M316.22,892.96c.04,12.57.1,31.83.18,57.8.16,7.36,1.43,11.56,3.82,12.6,2.39,1.04,5.13.27,8.22-2.29,3.09-2.56,5.74-5.61,7.93-9.13l.06-39c0-.71-.07-1.59-.21-2.64-.14-1.06-.43-2.12-.88-3.2-.45-1.08-1.15-1.99-2.09-2.73-.94-.74-2.19-1.15-3.76-1.23v-1.88c4.31,0,8.75-1.06,13.33-3.17,4.58-2.11,8.83-4.84,12.75-8.16,3.92-3.33,7.12-4.75,9.6-4.26,2.49.49,3.67,2.73,3.55,6.73v72.65c.23,2.58.76,4.76,1.59,6.52s.98,2.66.47,2.7h-36.47c-.16-.04.21-.87,1.09-2.5.88-1.62,1.2-3.87.97-6.73v-3.88c-5.48,6.66-12.23,10.77-20.23,12.33-8.01,1.57-15.2.79-21.58-2.32-6.38-3.11-9.87-8.39-10.46-15.83l-.18-42.41v-.23c0-.71-.06-1.51-.18-2.41-.16-1.06-.46-2.12-.91-3.2-.45-1.08-1.14-1.99-2.08-2.73-.94-.74-2.19-1.15-3.76-1.23v-1.88c4.31,0,8.76-1.06,13.36-3.17,4.6-2.11,8.85-4.84,12.75-8.16,3.9-3.33,7.15-4.66,9.75-3.99,2.6.67,3.73,3.02,3.38,7.05Z"/>
        <path class="cls-1" d="M424.61,871.23l.18,26.31c3.41-3.29,6.76-5.89,10.07-7.81,3.31-1.92,7.43-2.84,12.36-2.76,8.77.27,15.98,4.66,21.64,13.16,5.66,8.5,8.55,18.83,8.66,31.01-.31,12.33-3.49,22.56-9.51,30.69-6.03,8.13-13.55,12.32-22.55,12.6-7.79-.2-14.68-3.74-20.67-10.63v1.41c.24,2.55,1.11,4.67,2.61,6.37,1.51,1.7,2.1,2.59,1.79,2.67h-41.17c-.16-.04.6-.85,2.26-2.44,1.66-1.59,2.38-3.79,2.14-6.61v-77.18c.08-1.41.04-2.63-.12-3.67-.16-1.04-.46-2.07-.91-3.11-.45-1.04-1.15-1.92-2.08-2.64-.94-.72-2.19-1.13-3.76-1.2v-1.88c4.31,0,8.76-1.04,13.36-3.11,4.6-2.07,8.85-4.44,12.75-7.11,3.9-2.66,7.15-3.52,9.75-2.58,2.6.94,3.67,3.78,3.2,8.52ZM424.78,903.24v55.74c1.02,1.25,2.09,2.07,3.23,2.44,1.14.37,2.31.54,3.52.5,3.88-.2,7.12-3.18,9.72-8.96,2.6-5.78,3.96-13.01,4.08-21.7-.04-7.4-1.03-13.81-2.97-19.24-1.94-5.42-4.46-9.04-7.55-10.84-1.96-1.1-3.89-1.49-5.79-1.17-1.9.31-3.32,1.39-4.26,3.23Z"/>
      </g>
    </g>
  </g>
</svg>