<?xml version="1.0" encoding="UTF-8"?>
<svg id="Layer_2" data-name="Layer 2" xmlns="http://www.w3.org/2000/svg" viewBox="0 0 1288.07 509.55">
  <defs>
    <style>
      .cls-1 {
        fill: #a68a5d;
        stroke-width: 0px;
      }
    </style>
  </defs>
  <g id="Layer_1-2" data-name="Layer 1">
    <g>
      <g>
        <polyline class="cls-1" points="0 108.86 149.22 258.07 0 407.29"/>
        <rect class="cls-1" x="192.79" y="152.56" width="211.02" height="211.02" transform="translate(269.86 -135.35) rotate(45)"/>
        <polyline class="cls-1" points="596.65 407.29 447.44 258.07 596.65 108.86"/>
        <rect class="cls-1" y="407.29" width="596.65" height="100.67"/>
        <circle class="cls-1" cx="298.33" cy="43.28" r="43.28"/>
      </g>
      <g>
        <path class="cls-1" d="M728.11,117.09h-29.02v-8.19h67.74v8.19h-29.02v75.11h-9.71v-75.11Z"/>
        <path class="cls-1" d="M792.81,187.99c-5.69-3.43-10.08-8.37-13.16-14.8-3.08-6.43-4.62-13.98-4.62-22.64s1.52-16.3,4.56-22.7c3.04-6.4,7.41-11.31,13.1-14.74,5.69-3.43,12.44-5.15,20.24-5.15s14.55,1.72,20.24,5.15c5.69,3.43,10.06,8.35,13.1,14.74,3.04,6.4,4.56,13.92,4.56,22.58s-1.54,16.3-4.62,22.7c-3.08,6.4-7.47,11.33-13.16,14.8-5.69,3.47-12.4,5.21-20.12,5.21s-14.43-1.71-20.12-5.15ZM833.53,175.94c4.91-6.01,7.37-14.51,7.37-25.51s-2.44-19.46-7.31-25.39c-4.88-5.93-11.76-8.89-20.65-8.89s-15.79,2.98-20.71,8.95-7.37,14.41-7.37,25.33,2.46,19.5,7.37,25.51c4.91,6.01,11.82,9.01,20.71,9.01s15.68-3,20.59-9.01Z"/>
        <path class="cls-1" d="M938.47,192.21h-10.18l-10.3-27.73c-1.25-3.43-2.98-5.73-5.21-6.9s-5.36-1.75-9.42-1.75h-20.83v36.39h-9.48v-83.3h33.11c8.97,0,15.85,1.99,20.65,5.97,4.8,3.98,7.2,9.71,7.2,17.2,0,5.46-1.42,10.04-4.27,13.75-2.85,3.71-6.96,6.34-12.34,7.9,2.42.39,4.48,1.42,6.2,3.1,1.71,1.68,3.16,4.08,4.33,7.2l10.53,28.2ZM905.36,147.86c12.79,0,19.19-5.22,19.19-15.68,0-5.15-1.56-8.99-4.68-11.52-3.12-2.53-7.96-3.8-14.51-3.8h-22.81v31h22.81Z"/>
        <path class="cls-1" d="M972.99,187.99c-5.69-3.43-10.08-8.37-13.16-14.8-3.08-6.43-4.62-13.98-4.62-22.64s1.52-16.3,4.56-22.7c3.04-6.4,7.41-11.31,13.1-14.74,5.69-3.43,12.44-5.15,20.24-5.15s14.55,1.72,20.24,5.15c5.69,3.43,10.06,8.35,13.1,14.74,3.04,6.4,4.56,13.92,4.56,22.58s-1.54,16.3-4.62,22.7c-3.08,6.4-7.47,11.33-13.16,14.8-5.69,3.47-12.4,5.21-20.12,5.21s-14.43-1.71-20.12-5.15ZM1013.71,175.94c4.91-6.01,7.37-14.51,7.37-25.51s-2.44-19.46-7.31-25.39c-4.88-5.93-11.76-8.89-20.65-8.89s-15.79,2.98-20.71,8.95-7.37,14.41-7.37,25.33,2.46,19.5,7.37,25.51c4.91,6.01,11.82,9.01,20.71,9.01s15.68-3,20.59-9.01Z"/>
        <path class="cls-1" d="M1120.06,108.9v83.3h-7.49l-50.31-67.04v67.04h-9.01v-83.3h7.37l50.31,67.04v-67.04h9.13Z"/>
        <path class="cls-1" d="M1165.34,117.09h-29.02v-8.19h67.74v8.19h-29.02v75.11h-9.71v-75.11Z"/>
        <path class="cls-1" d="M1230.04,187.99c-5.69-3.43-10.08-8.37-13.16-14.8-3.08-6.43-4.62-13.98-4.62-22.64s1.52-16.3,4.56-22.7c3.04-6.4,7.41-11.31,13.1-14.74,5.69-3.43,12.44-5.15,20.24-5.15s14.55,1.72,20.24,5.15c5.69,3.43,10.06,8.35,13.1,14.74,3.04,6.4,4.56,13.92,4.56,22.58s-1.54,16.3-4.62,22.7c-3.08,6.4-7.47,11.33-13.16,14.8-5.69,3.47-12.4,5.21-20.12,5.21s-14.43-1.71-20.12-5.15ZM1270.75,175.94c4.91-6.01,7.37-14.51,7.37-25.51s-2.44-19.46-7.31-25.39c-4.88-5.93-11.76-8.89-20.65-8.89s-15.79,2.98-20.71,8.95-7.37,14.41-7.37,25.33,2.46,19.5,7.37,25.51c4.91,6.01,11.82,9.01,20.71,9.01s15.68-3,20.59-9.01Z"/>
      </g>
      <g>
        <path class="cls-1" d="M699.58,296.66c.4-15.12,5.9-28.25,16.5-39.41s23.04-17.36,37.34-18.6c14.3-1.24,26.92,3.54,37.88,14.34,6.8,9.4,7.99,17.8,3.57,25.19-4.42,7.4-11.29,10.5-20.61,9.3-7.4-1.88-11.87-5.72-13.41-11.52-1.54-5.8-.78-11.02,2.28-15.66,3.06-4.64,7.45-7.18,13.17-7.62-4.44-4.6-10.17-5.91-17.19-3.93s-13.28,7.07-18.78,15.27c-5.5,8.2-8.17,19.26-8.01,33.17.08,14.4,3.78,24.79,11.1,31.19,7.32,6.4,16.25,8.77,26.79,7.11,10.54-1.66,19.83-7.09,27.86-16.29-1.36,8.12-5.97,15.76-13.83,22.92-7.86,7.16-17.41,11.1-28.64,11.82-15.44-.08-28.38-5.12-38.84-15.12-10.46-10-16.19-24.05-17.19-42.17Z"/>
        <path class="cls-1" d="M851.55,245.61l-.18,31.31c5.4-7.2,12.29-11.31,20.67-12.33s15.96.44,22.74,4.38c6.78,3.94,10.49,9.75,11.13,17.43v58.19c-.2,2.88.54,5.13,2.22,6.75,1.68,1.62,2.44,2.45,2.28,2.49h-42.05c-.32-.08.29-.99,1.83-2.73,1.54-1.74,2.43-3.91,2.67-6.51v-53.57c-.16-8.6-1.59-13.77-4.29-15.51-2.7-1.74-5.72-1.36-9.06,1.14-3.34,2.5-6.05,5.85-8.13,10.05v57.89c.24,2.6,1.13,4.77,2.67,6.51,1.54,1.74,2.15,2.65,1.83,2.73h-42.17c-.32-.08.29-.99,1.83-2.73,1.54-1.74,2.43-3.91,2.67-6.51l.12-78.82c.08-1.44.04-2.69-.12-3.75-.16-1.06-.47-2.12-.93-3.18s-1.17-1.96-2.13-2.7c-.96-.74-2.24-1.15-3.84-1.23v-1.92c4.4,0,8.95-1.06,13.65-3.18,4.7-2.12,9.04-4.54,13.02-7.26,3.98-2.72,7.33-4.1,10.05-4.14,2.72-.04,3.9,2.36,3.54,7.2Z"/>
        <path class="cls-1" d="M922.12,309.44c-.16-7.44,1.73-14.83,5.67-22.17,3.94-7.34,9.57-13.25,16.89-17.73s15.98-6.1,25.97-4.86c8.48,1.28,15.12,4.73,19.92,10.35,4.8,5.62,7.15,11.95,7.05,18.99-.1,7.04-3.29,13.28-9.57,18.72-6.28,5.44-16.26,8.6-29.93,9.48,2.84,6,7.39,10.05,13.65,12.15,6.26,2.1,12.52,2.45,18.78,1.05,6.26-1.4,10.83-4.34,13.71-8.82-2.4,7-6.99,13.24-13.77,18.72-6.78,5.48-14.59,8.4-23.42,8.76-12.36-.04-22.74-3.96-31.13-11.76s-13-18.76-13.8-32.87ZM969.69,269.25c-3.44-.12-6.35,3.25-8.73,10.11-2.38,6.86-3.93,14.26-4.65,22.2-.72,7.94-.32,13.47,1.2,16.59,6.8-.12,11.81-2.41,15.03-6.87,3.22-4.46,5.04-9.73,5.46-15.81.42-6.08-.17-11.64-1.77-16.68-1.6-5.04-3.78-8.22-6.54-9.54Z"/>
        <path class="cls-1" d="M1057.77,331.99c-.16-2.88-1.71-5.44-4.65-7.68-2.94-2.24-6.51-4.46-10.71-6.66-5.84-2.88-11.22-6.42-16.14-10.62s-7.52-9.84-7.8-16.92c.56-7.8,4.73-14.13,12.51-18.99,7.78-4.86,16.75-7.19,26.9-6.99,10.16.2,19.04,3.98,26.63,11.34,3.88,4.64,5.7,9.19,5.46,13.65-.24,4.46-1.95,8.04-5.13,10.74-3.18,2.7-7.21,3.71-12.09,3.03-6.6-1.4-10.68-4.4-12.24-9-1.56-4.6-1.21-8.92,1.05-12.96,2.26-4.04,5.83-5.94,10.71-5.7-2.2-2.2-5.01-2.92-8.43-2.16s-6.45,2.67-9.09,5.73c-2.64,3.06-3.9,6.93-3.78,11.61.36,3.48,2.2,6.39,5.52,8.73,3.32,2.34,7.26,4.55,11.82,6.63,5.76,2.52,10.98,5.6,15.66,9.24,4.68,3.64,7.2,8.7,7.56,15.18-.08,5.88-1.84,10.66-5.28,14.34-3.44,3.68-7.74,6.42-12.9,8.22s-10.36,2.86-15.6,3.18c-7.04.44-14.21-.59-21.51-3.09-7.3-2.5-12.83-6.47-16.59-11.91-2.4-3.92-3.41-8.04-3.03-12.36.38-4.32,2.22-7.9,5.52-10.74,3.3-2.84,6.81-3.76,10.53-2.76,5.64,1.44,9.1,4.38,10.38,8.82,1.28,4.44.81,8.59-1.41,12.45s-5.75,5.63-10.59,5.31c3.84,3.2,7.75,4.48,11.73,3.84,3.98-.64,7.38-2.3,10.2-4.98,2.82-2.68,4.41-5.52,4.77-8.52Z"/>
        <path class="cls-1" d="M1147.36,331.99c-.16-2.88-1.71-5.44-4.65-7.68-2.94-2.24-6.51-4.46-10.71-6.66-5.84-2.88-11.22-6.42-16.14-10.62s-7.52-9.84-7.8-16.92c.56-7.8,4.73-14.13,12.51-18.99,7.78-4.86,16.75-7.19,26.9-6.99,10.16.2,19.04,3.98,26.63,11.34,3.88,4.64,5.7,9.19,5.46,13.65-.24,4.46-1.95,8.04-5.13,10.74-3.18,2.7-7.21,3.71-12.09,3.03-6.6-1.4-10.68-4.4-12.24-9-1.56-4.6-1.21-8.92,1.05-12.96,2.26-4.04,5.83-5.94,10.71-5.7-2.2-2.2-5.01-2.92-8.43-2.16s-6.45,2.67-9.09,5.73c-2.64,3.06-3.9,6.93-3.78,11.61.36,3.48,2.2,6.39,5.52,8.73,3.32,2.34,7.26,4.55,11.82,6.63,5.76,2.52,10.98,5.6,15.66,9.24,4.68,3.64,7.2,8.7,7.56,15.18-.08,5.88-1.84,10.66-5.28,14.34-3.44,3.68-7.74,6.42-12.9,8.22s-10.36,2.86-15.6,3.18c-7.04.44-14.21-.59-21.51-3.09-7.3-2.5-12.83-6.47-16.59-11.91-2.4-3.92-3.41-8.04-3.03-12.36.38-4.32,2.22-7.9,5.52-10.74,3.3-2.84,6.81-3.76,10.53-2.76,5.64,1.44,9.1,4.38,10.38,8.82,1.28,4.44.81,8.59-1.41,12.45s-5.75,5.63-10.59,5.31c3.84,3.2,7.75,4.48,11.73,3.84,3.98-.64,7.38-2.3,10.2-4.98,2.82-2.68,4.41-5.52,4.77-8.52Z"/>
        <path class="cls-1" d="M699.58,451.9c.4-15.12,5.9-28.25,16.5-39.41s23.04-17.36,37.34-18.6c14.3-1.24,26.92,3.54,37.88,14.34,6.8,9.4,7.99,17.8,3.57,25.19-4.42,7.4-11.29,10.5-20.61,9.3-7.4-1.88-11.87-5.72-13.41-11.52-1.54-5.8-.78-11.02,2.28-15.66,3.06-4.64,7.45-7.18,13.17-7.62-4.44-4.6-10.17-5.91-17.19-3.93s-13.28,7.07-18.78,15.27c-5.5,8.2-8.17,19.26-8.01,33.17.08,14.4,3.78,24.79,11.1,31.19,7.32,6.4,16.25,8.77,26.79,7.11,10.54-1.66,19.83-7.09,27.86-16.29-1.36,8.12-5.97,15.76-13.83,22.92-7.86,7.16-17.41,11.1-28.64,11.82-15.44-.08-28.38-5.12-38.84-15.12-10.46-10-16.19-24.05-17.19-42.17Z"/>
        <path class="cls-1" d="M850.89,401.09l.18,98.8c.24,2.6,1.13,4.77,2.67,6.51,1.54,1.74,2.15,2.65,1.83,2.73h-42.05c-.16-.04.61-.87,2.31-2.49,1.7-1.62,2.43-3.87,2.19-6.75v-78.82c.08-1.44.04-2.69-.12-3.75-.16-1.06-.47-2.12-.93-3.18-.46-1.06-1.17-1.96-2.13-2.7-.96-.74-2.24-1.15-3.84-1.23v-1.92c4.4,0,8.95-1.06,13.65-3.18,4.7-2.12,9.04-4.54,13.02-7.26,3.98-2.72,7.21-3.72,9.69-3,2.48.72,3.66,2.8,3.54,6.24Z"/>
        <path class="cls-1" d="M908.08,426.35c.04,12.84.1,32.51.18,59.03.16,7.52,1.46,11.81,3.9,12.87,2.44,1.06,5.24.28,8.4-2.34s5.86-5.73,8.1-9.33l.06-39.83c0-.72-.07-1.62-.21-2.7-.14-1.08-.44-2.17-.9-3.27-.46-1.1-1.17-2.03-2.13-2.79-.96-.76-2.24-1.18-3.84-1.26v-1.92c4.4,0,8.94-1.08,13.62-3.24,4.68-2.16,9.02-4.94,13.02-8.34,4-3.4,7.27-4.85,9.81-4.35,2.54.5,3.75,2.79,3.63,6.87v74.21c.24,2.64.78,4.86,1.62,6.66.84,1.8,1,2.72.48,2.76h-37.25c-.16-.04.21-.89,1.11-2.55.9-1.66,1.23-3.95.99-6.87v-3.96c-5.6,6.8-12.49,11-20.67,12.6-8.18,1.6-15.53.81-22.04-2.37-6.52-3.18-10.08-8.57-10.68-16.17l-.18-43.31v-.24c0-.72-.06-1.54-.18-2.46-.16-1.08-.47-2.17-.93-3.27-.46-1.1-1.17-2.03-2.13-2.79-.96-.76-2.24-1.18-3.84-1.26v-1.92c4.4,0,8.95-1.08,13.65-3.24,4.7-2.16,9.04-4.94,13.02-8.34,3.98-3.4,7.3-4.76,9.96-4.08,2.66.68,3.81,3.08,3.45,7.2Z"/>
        <path class="cls-1" d="M1018.78,404.15l.18,26.87c3.48-3.36,6.91-6.02,10.29-7.98,3.38-1.96,7.59-2.9,12.63-2.82,8.96.28,16.33,4.76,22.11,13.44,5.78,8.68,8.73,19.24,8.85,31.67-.32,12.6-3.56,23.05-9.72,31.34-6.16,8.3-13.84,12.59-23.04,12.87-7.96-.2-15-3.82-21.12-10.86v1.44c.24,2.6,1.13,4.77,2.67,6.51,1.54,1.74,2.15,2.65,1.83,2.73h-42.05c-.16-.04.61-.87,2.31-2.49,1.7-1.62,2.43-3.87,2.19-6.75v-78.82c.08-1.44.04-2.69-.12-3.75-.16-1.06-.47-2.12-.93-3.18-.46-1.06-1.17-1.96-2.13-2.7s-2.24-1.15-3.84-1.23v-1.92c4.4,0,8.95-1.06,13.65-3.18,4.7-2.12,9.04-4.54,13.02-7.26,3.98-2.72,7.3-3.6,9.96-2.64,2.66.96,3.75,3.86,3.27,8.7ZM1018.96,436.84v56.93c1.04,1.28,2.14,2.11,3.3,2.49,1.16.38,2.36.55,3.6.51,3.96-.2,7.27-3.25,9.93-9.15,2.66-5.9,4.05-13.29,4.17-22.17-.04-7.56-1.05-14.11-3.03-19.65-1.98-5.54-4.55-9.23-7.71-11.07-2-1.12-3.97-1.52-5.91-1.2-1.94.32-3.39,1.42-4.35,3.3Z"/>
      </g>
    </g>
  </g>
</svg>