<?xml version="1.0" standalone="no"?>
<!DOCTYPE svg PUBLIC "-//W3C//DTD SVG 20010904//EN"
 "http://www.w3.org/TR/2001/REC-SVG-20010904/DTD/svg10.dtd">
<svg version="1.0" xmlns="http://www.w3.org/2000/svg"
 width="600.000000pt" height="600.000000pt" viewBox="0 0 600.000000 600.000000"
 preserveAspectRatio="xMidYMid meet">
<metadata>
Created by potrace 1.14, written by Peter Selinger 2001-2017
</metadata>
<g transform="translate(0.000000,600.000000) scale(0.100000,-0.100000)"
fill="#000000" stroke="none">
<path d="M2890 5546 c-201 -57 -335 -242 -323 -446 6 -116 70 -245 151 -306
20 -15 39 -31 42 -34 10 -12 85 -43 135 -56 262 -70 527 127 539 403 9 200
-121 378 -318 437 -56 17 -171 18 -226 2z"/>
<path d="M0 2457 l0 -2007 3000 0 3000 0 0 2007 0 2008 -750 -750 -750 -750
-750 750 -750 750 -750 -750 -750 -750 -750 750 -750 750 0 -2008z m2263 -255
l737 -739 -1495 0 c-822 0 -1495 3 -1495 5 0 3 334 339 742 748 586 587 745
741 757 734 9 -5 348 -342 754 -748z m2985 14 c408 -409 742 -745 742 -748 0
-4 -2968 -4 -2979 0 -6 2 1482 1492 1489 1492 3 0 339 -335 748 -744z"/>
</g>
</svg>
