<svg viewBox="0 0 28 20" xmlns="http://www.w3.org/2000/svg">
    <path d="M0 1V0.5H-0.5V1H0ZM0 2.7739H-0.5V3.0547L-0.260233 3.20085L0 2.7739ZM2.7 4.41964L2.43977 4.84658L2.43984 4.84662L2.7 4.41964ZM13.5 11L13.2398 11.427L13.4991 11.5849L13.7588 11.4278L13.5 11ZM20.756 6.60997L21.0148 7.03777L21.0148 7.03777L20.756 6.60997ZM24.3 4.46578L24.5588 4.89357L24.559 4.89344L24.3 4.46578ZM27 2.8303L27.259 3.25796L27.5 3.11201V2.8303H27ZM27 1H27.5V0.5H27V1ZM0 3L0.255852 2.57042L-0.5 2.12025V3H0ZM0 19H-0.5V19.5H0V19ZM27 19V19.5H27.5V19H27ZM27 3.04832H27.5V2.1711L26.7452 2.61811L27 3.04832ZM13.5026 11.042L13.2468 11.4715L13.5019 11.6235L13.7574 11.4722L13.5026 11.042ZM-0.5 1V2.7739H0.5V1H-0.5ZM-0.260233 3.20085L2.43977 4.84658L2.96023 3.99269L0.260233 2.34696L-0.260233 3.20085ZM2.43984 4.84662L13.2398 11.427L13.7602 10.573L2.96016 3.99265L2.43984 4.84662ZM13.7588 11.4278L21.0148 7.03777L20.4972 6.18217L13.2412 10.5722L13.7588 11.4278ZM21.0148 7.03777L24.5588 4.89357L24.0412 4.03798L20.4972 6.18217L21.0148 7.03777ZM24.559 4.89344L27.259 3.25796L26.741 2.40264L24.041 4.03812L24.559 4.89344ZM27.5 2.8303V1H26.5V2.8303H27.5ZM27 0.5H0V1.5H27V0.5ZM-0.5 3V19H0.5V3H-0.5ZM0 19.5H27V18.5H0V19.5ZM27.5 19V3.04832H26.5V19H27.5ZM26.7452 2.61811L13.2478 10.6118L13.7574 11.4722L27.2548 3.47854L26.7452 2.61811ZM13.7585 10.6124L0.255852 2.57042L-0.255852 3.42958L13.2468 11.4715L13.7585 10.6124Z" />
</svg>
