<svg viewBox="0 0 26 26" xmlns="http://www.w3.org/2000/svg">
    <path fill-rule="evenodd" clip-rule="evenodd" d="M7.68182 0C3.44647 0 0 3.44647 0 7.68182V18.3182C0 22.5535 3.44647 26 7.68182 26H18.3182C22.5535 26 26 22.5535 26 18.3182V7.68182C26 3.44647 22.5535 0 18.3182 0H7.68182ZM7.6 1H18.4C22.0519 1 25 3.94811 25 7.6V18.4C25 22.0519 22.0519 25 18.4 25H7.6C3.94811 25 1 22.0519 1 18.4V7.6C1 3.94811 3.94811 1 7.6 1ZM19 6C19 5.44772 19.4477 5 20 5C20.5523 5 21 5.44772 21 6C21 6.55228 20.5523 7 20 7C19.4477 7 19 6.55228 19 6ZM12.5 6C8.91715 6 6 8.91715 6 12.5C6 16.0829 8.91715 19 12.5 19C16.0829 19 19 16.0829 19 12.5C19 8.91715 16.0829 6 12.5 6ZM18 12.5C18 9.4552 15.5448 7 12.5 7C9.4552 7 7 9.4552 7 12.5C7 15.5448 9.4552 18 12.5 18C15.5448 18 18 15.5448 18 12.5Z" />
</svg>
