<svg viewBox="0 0 28 28" xmlns="http://www.w3.org/2000/svg">
    <path fill-rule="evenodd" clip-rule="evenodd" d="M0 14.0224C0 6.28558 6.27554 0 14 0C21.7245 0 28 6.28558 28 14.0224C28 21.1145 22.7273 26.9736 15.8954 27.9017L15.1733 28V16.9317H18.723L19.0698 14.6884H15.1733V12.1277C15.1733 11.3274 15.2904 10.5421 15.6667 9.8844C16.043 9.22668 16.768 8.73288 17.6516 8.73288H19.209V6.89667C19.1712 6.89203 19.1333 6.88726 19.0947 6.88241C18.6816 6.83043 18.1989 6.7697 17.1048 6.7697C15.6087 6.7697 14.5337 7.152 13.8061 7.91001C13.0785 8.66803 12.639 9.87621 12.639 11.7107V14.6897H9.33168V16.933H12.639V27.9826L11.9082 27.8718C5.17207 26.8582 0 21.0458 0 14.0224ZM26.7273 14.0224C26.7273 6.97451 21.0366 1.27476 14 1.27476C6.96337 1.27476 1.27273 6.97451 1.27273 14.0224C1.27273 20.1569 5.61082 25.2115 11.3663 26.4327V18.2077H8.05895V13.4149H11.3663V11.7107C11.3663 9.66917 11.8696 8.08801 12.8888 7.02614C13.9081 5.96427 15.3846 5.49493 17.1048 5.49493C18.6542 5.49493 19.523 5.61279 19.9131 5.6657L19.9299 5.66797L20.4817 5.74266V10.0076H17.6516C17.1703 10.0076 16.974 10.1622 16.7704 10.5181C16.5668 10.8739 16.446 11.4664 16.446 12.1277V13.4137H20.5538L19.8143 18.2065H16.446V26.4725C22.2955 25.3243 26.7273 20.224 26.7273 14.0224Z" />
</svg>
