<svg viewBox="0 0 134 94" xmlns="http://www.w3.org/2000/svg">
    <path d="M32.6321 0.980989C35.635 0.980989 37.7801 1.83898 41.2121 3.98398L43.7861 6.12897C46.7891 8.274 48.5051 9.56098 48.5051 12.564C48.5051 18.57 33.9191 26.292 33.9191 42.594C33.9191 46.455 35.206 49.029 40.3541 52.032C48.5051 56.322 52.7951 62.328 52.7951 71.766C52.7951 86.352 41.641 93.645 29.2 93.645C11.1821 93.645 0.88605 81.204 0.88605 59.325C0.88605 29.724 24.0521 0.980989 32.6321 0.980989ZM113.284 0.980989C116.287 0.980989 118.432 1.83898 121.864 3.98398L124.438 6.12897C127.441 8.274 129.157 9.56098 129.157 12.564C129.157 18.57 114.571 26.292 114.571 42.594C114.571 46.455 115.858 49.029 121.006 52.032C129.157 56.322 133.447 62.328 133.447 71.766C133.447 86.352 122.293 93.645 109.852 93.645C91.8341 93.645 81.5381 81.204 81.5381 59.325C81.5381 29.724 104.704 0.980989 113.284 0.980989Z" />
</svg>
