<svg viewBox="0 0 32 24" xmlns="http://www.w3.org/2000/svg">
    <path fill-rule="evenodd" clip-rule="evenodd" d="M6.36343 0H25.6366C29.1455 0 32 2.92341 32 6.51618V17.4838C32 21.0766 29.1455 24 25.6366 24H6.36343C2.85453 24 0 21.0773 0 17.4838V6.51618C0 2.92341 2.85453 0 6.36343 0ZM25.6366 22.6673C28.4251 22.6673 30.6939 20.3426 30.6939 17.4845V6.51618C30.6939 3.65877 28.4251 1.33337 25.6366 1.33337H6.36343C3.57486 1.33337 1.30612 3.65877 1.30612 6.51618V17.4845C1.30612 20.3419 3.57486 22.6673 6.36343 22.6673H25.6366Z" />
    <path fill-rule="evenodd" clip-rule="evenodd" d="M12.0442 6.09003L21.6566 11.4321C21.8696 11.55 22 11.7672 22 12.0009C22 12.2346 21.8689 12.4512 21.6566 12.569L12.0442 17.9098C11.9359 17.9697 11.8152 18 11.6938 18C11.5745 18 11.4551 17.971 11.3483 17.9131C11.1332 17.7959 11 17.5774 11 17.3417V6.65815C11 6.42182 11.1332 6.20392 11.349 6.08674C11.5647 5.96956 11.8305 5.97154 12.0442 6.09003ZM12.3876 7.80622V16.193L19.9332 12.0003L12.3876 7.80622Z" />
</svg>
